<svg width="32" height="33" viewBox="0 0 32 33" fill="none" xmlns="http://www.w3.org/2000/svg">
<path fill-rule="evenodd" clip-rule="evenodd" d="M3.38644 18.623C3.83984 18.623 4.20739 18.9906 4.20739 19.444L4.2074 30.7663H26.852V19.444C26.852 18.9906 27.2195 18.623 27.6729 18.623C28.1263 18.623 28.4939 18.9906 28.4939 19.444V31.5872C28.4939 32.0406 28.1263 32.4082 27.6729 32.4082H3.38645C2.93305 32.4082 2.5655 32.0406 2.5655 31.5872L2.56549 19.444C2.56549 18.9906 2.93304 18.623 3.38644 18.623Z" fill="white"/>
<path fill-rule="evenodd" clip-rule="evenodd" d="M15.2912 0.648654C15.6118 0.328053 16.1316 0.328053 16.4522 0.648654L31.503 15.6994C31.7378 15.9342 31.808 16.2873 31.681 16.5941C31.5539 16.9009 31.2545 17.1009 30.9225 17.1009H12.5879V27.3457H18.8135V20.1794H15.8717C15.4183 20.1794 15.0508 19.8119 15.0508 19.3585C15.0508 18.9051 15.4183 18.5375 15.8717 18.5375H19.6344C20.0878 18.5375 20.4554 18.9051 20.4554 19.3585V28.1666C20.4554 28.62 20.0878 28.9876 19.6344 28.9876H11.767C11.3136 28.9876 10.946 28.62 10.946 28.1666V16.2799C10.946 15.8265 11.3136 15.459 11.767 15.459H28.9405L15.8717 2.39015L1.40145 16.8604C1.08085 17.181 0.561053 17.181 0.240451 16.8604C-0.0801504 16.5398 -0.0801504 16.02 0.240451 15.6994L15.2912 0.648654Z" fill="white"/>
</svg>
